<svg width="34" height="34" viewBox="0 0 34 34" fill="none" xmlns="http://www.w3.org/2000/svg">
<g id="ph:image-light" opacity="0.3">
<path id="Vector" d="M28.218 6.03381H5.77804C5.30463 6.03381 4.85061 6.22188 4.51586 6.55663C4.1811 6.89138 3.99304 7.3454 3.99304 7.81881V26.1788C3.99304 26.6522 4.1811 27.1062 4.51586 27.441C4.85061 27.7758 5.30463 27.9638 5.77804 27.9638H28.218C28.6915 27.9638 29.1455 27.7758 29.4802 27.441C29.815 27.1062 30.003 26.6522 30.003 26.1788V7.81881C30.003 7.3454 29.815 6.89138 29.4802 6.55663C29.1455 6.22188 28.6915 6.03381 28.218 6.03381ZM5.77804 7.56381H28.218C28.2857 7.56381 28.3505 7.59068 28.3984 7.6385C28.4462 7.68632 28.473 7.75118 28.473 7.81881V21.534L24.7156 17.7766C24.5499 17.6108 24.3531 17.4793 24.1365 17.3896C23.9199 17.2999 23.6878 17.2537 23.4534 17.2537C23.2189 17.2537 22.9868 17.2999 22.7702 17.3896C22.5537 17.4793 22.3569 17.6108 22.1911 17.7766L19.4601 20.5076L13.6703 14.7166C13.5045 14.5508 13.3078 14.4193 13.0912 14.3296C12.8746 14.2399 12.6425 14.1937 12.408 14.1937C12.1736 14.1937 11.9415 14.2399 11.7249 14.3296C11.5083 14.4193 11.3115 14.5508 11.1458 14.7166L5.52304 20.3393V7.81881C5.52304 7.75118 5.54991 7.68632 5.59773 7.6385C5.64555 7.59068 5.71041 7.56381 5.77804 7.56381ZM5.52304 26.1788V22.503L12.227 15.799C12.2507 15.7751 12.2789 15.7562 12.31 15.7432C12.341 15.7303 12.3744 15.7236 12.408 15.7236C12.4417 15.7236 12.475 15.7303 12.5061 15.7432C12.5372 15.7562 12.5654 15.7751 12.5891 15.799L23.2239 26.4338H5.77804C5.71041 26.4338 5.64555 26.4069 5.59773 26.3591C5.54991 26.3113 5.52304 26.2464 5.52304 26.1788ZM28.218 26.4338H25.3875L20.5425 21.5888L23.2723 18.8578C23.296 18.8341 23.3241 18.8152 23.3551 18.8024C23.386 18.7896 23.4192 18.783 23.4527 18.783C23.4862 18.783 23.5194 18.7896 23.5504 18.8024C23.5813 18.8152 23.6095 18.8341 23.6331 18.8578L28.4781 23.7028V26.1788C28.4781 26.2127 28.4714 26.2463 28.4583 26.2776C28.4451 26.3089 28.4259 26.3372 28.4017 26.361C28.3774 26.3847 28.3487 26.4034 28.3172 26.4159C28.2857 26.4284 28.252 26.4345 28.218 26.4338ZM19.293 13.4288C19.293 13.1766 19.3678 12.9301 19.5079 12.7205C19.648 12.5108 19.8471 12.3474 20.0801 12.2509C20.3131 12.1544 20.5695 12.1291 20.8168 12.1783C21.0641 12.2275 21.2913 12.3489 21.4696 12.5273C21.6479 12.7056 21.7693 12.9327 21.8185 13.1801C21.8677 13.4274 21.8425 13.6838 21.746 13.9167C21.6495 14.1497 21.4861 14.3488 21.2764 14.4889C21.0667 14.629 20.8202 14.7038 20.568 14.7038C20.2299 14.7038 19.9056 14.5695 19.6665 14.3304C19.4274 14.0913 19.293 13.767 19.293 13.4288Z" fill="#afafaf"/>
</g>
</svg>
